<?xml version="1.0" encoding="UTF-8"?>
<svg width="1200pt" height="1200pt" version="1.1" viewBox="0 0 1200 1200" xmlns="http://www.w3.org/2000/svg">
 <path d="m379.58 647.23h220.42c8.6875 0 15.746-7.0547 15.746-15.746 0-8.6875-7.0586-15.742-15.746-15.742h-220.42c-8.6836 0-15.742 7.0547-15.742 15.742 0 8.6914 7.0586 15.746 15.742 15.746z" fill="#0c76b9" fill-rule="evenodd"/>
 <path d="m379.58 552.77h314.88c8.6836 0 15.742-7.0547 15.742-15.742 0-8.6914-7.0586-15.746-15.742-15.746h-314.88c-8.6836 0-15.742 7.0547-15.742 15.746 0 8.6875 7.0586 15.742 15.742 15.742z" fill="#0c76b9" fill-rule="evenodd"/>
 <path d="m379.58 741.7h157.44c8.6875 0 15.746-7.0547 15.746-15.746s-7.0586-15.742-15.746-15.742h-157.44c-8.6836 0-15.742 7.0508-15.742 15.742s7.0586 15.746 15.742 15.746z" fill="#0c76b9" fill-rule="evenodd"/>
 <path d="m379.58 836.16h125.95c8.6875 0 15.746-7.0547 15.746-15.746 0-8.6914-7.0586-15.742-15.746-15.742h-125.95c-8.6836 0-15.742 7.0508-15.742 15.742 0 8.6914 7.0586 15.746 15.742 15.746z" fill="#0c76b9" fill-rule="evenodd"/>
 <path d="m649.94 237.89h-333.33c-20.879 0-40.902 8.3008-55.672 23.051-14.75 14.77-23.051 34.793-23.051 55.672v566.79c0 43.469 35.254 78.719 78.723 78.719h440.83c20.879 0 40.902-8.2969 55.672-23.047 14.754-14.77 23.051-34.797 23.051-55.672v-245.39l114.82-114.82c8.8633-8.8477 13.84-20.863 13.84-33.395s-4.9922-24.543-13.84-33.395c-5.9844-5.9961-12.453-12.469-18.453-18.449-8.8477-8.8477-20.859-13.84-33.395-13.84-12.531 0-24.543 4.9766-33.391 13.84l-29.582 29.582v-43.422c0-12.516-4.9766-24.531-13.84-33.395l-138.99-138.99c-8.8633-8.8633-20.879-13.84-33.395-13.84zm154.73 261.13v-56.457c0-4.1719-1.6562-8.1875-4.6133-11.133-2.9453-2.9609-6.9609-4.6133-11.133-4.6133h-62.977c-20.875 0-40.902-8.2969-55.672-23.047-14.75-14.77-23.047-34.797-23.047-55.672v-62.977c0-8.6914-7.0547-15.746-15.746-15.746h-314.88c-12.531 0-24.547 4.9766-33.395 13.84-8.8633 8.8477-13.84 20.863-13.84 33.395v566.79c0 26.086 21.145 47.23 47.234 47.23h440.83c12.531 0 24.547-4.9727 33.395-13.836 8.8633-8.8477 13.84-20.863 13.84-33.395v-213.9l-125.31 125.31c-5.1797 5.1953-11.508 9.0977-18.469 11.414-21.914 7.3047-87.41 29.141-87.41 29.141-5.6523 1.875-11.887 0.41016-16.105-3.8086-4.2188-4.2227-5.6836-10.457-3.8086-16.109 0 0 21.836-65.492 29.141-87.41 2.3125-6.957 6.2188-13.285 11.414-18.465zm-211.27 296.51 40.43-13.477-26.953-26.953zm28.859-69.574 40.711 40.715 198.16-198.16-40.715-40.711zm261.13-179.7-40.715-40.711 45.328-45.328c2.9453-2.9453 6.957-4.6133 11.129-4.6133 4.1758 0 8.1875 1.668 11.133 4.6133l18.453 18.453c2.9414 2.9414 4.6133 6.957 4.6133 11.129s-1.6719 8.1875-4.6133 11.133zm-204.67-254.61v56.457c0 12.531 4.9727 24.543 13.84 33.391 8.8477 8.8672 20.859 13.84 33.391 13.84h56.461z" fill="#0c76b9" fill-rule="evenodd"/>
</svg>
