<svg width="23" height="23" viewBox="0 0 23 23" fill="none" xmlns="http://www.w3.org/2000/svg">
<path d="M21.0459 6.52387C21.0215 6.46543 20.9865 6.41318 20.9424 6.36911L14.7138 0.140381C14.6242 0.0503125 14.5024 0 14.375 0H4.31251C2.99144 0 1.91669 1.07476 1.91669 2.39582V20.6041C1.91669 22.4993 3.48401 23 4.31251 23H18.6875C20.0086 23 21.0833 21.9252 21.0833 20.6042V6.70832C21.0833 6.64462 21.0704 6.58182 21.0459 6.52387ZM20.125 20.6042C20.125 21.3967 19.4801 22.0417 18.6875 22.0417H4.31538C4.07482 22.0388 2.87501 21.9569 2.87501 20.6042V2.39582C2.87501 1.60326 3.51995 0.958318 4.31251 0.958318H14.1766L19.4474 6.22914H16.2916C15.4991 6.22914 14.8541 5.58419 14.8541 4.79164V3.35414C14.8542 3.08968 14.64 2.875 14.375 2.875C14.11 2.875 13.8958 3.08968 13.8958 3.35418V4.79168C13.8958 6.11274 14.9706 7.1875 16.2916 7.1875H20.125V20.6042Z" fill="#0D76BA"/>
<path d="M18.3296 10.3792L17.652 9.70168C17.2788 9.32793 16.6702 9.32793 16.2969 9.70168L9.52007 16.4786C9.46783 16.5308 9.42807 16.595 9.40458 16.6654L8.72702 18.6981C8.66952 18.8701 8.71458 19.0603 8.84252 19.1882C8.93357 19.2793 9.05621 19.3286 9.18127 19.3286C9.23159 19.3286 9.28334 19.3205 9.33271 19.3037L11.3653 18.6261C11.4358 18.6026 11.5 18.5629 11.5527 18.5106L18.3296 11.7348C18.7033 11.3611 18.7033 10.753 18.3296 10.3792ZM10.9552 17.7536L9.93888 18.0924L10.2776 17.0761L15.6189 11.7348L16.2965 12.4124L10.9552 17.7536ZM16.9745 11.7348L16.2969 11.0572L16.9745 10.3792L17.6521 11.0572L16.9745 11.7348Z" fill="#0D76BA"/>
<path d="M11.9792 10.0625H5.27081C5.00581 10.0625 4.79163 10.2772 4.79163 10.5417C4.79163 10.8062 5.00581 11.0209 5.27081 11.0209H11.9791C12.2441 11.0209 12.4583 10.8062 12.4583 10.5417C12.4583 10.2772 12.2441 10.0625 11.9792 10.0625Z" fill="#0D76BA"/>
<path d="M9.58331 12.9375H5.27081C5.00581 12.9375 4.79163 13.1517 4.79163 13.4167C4.79163 13.6817 5.00581 13.8959 5.27081 13.8959H9.58331C9.8483 13.8959 10.0625 13.6817 10.0625 13.4167C10.0625 13.1517 9.8483 12.9375 9.58331 12.9375Z" fill="#0D76BA"/>
<path d="M6.22919 15.8125H5.27087C5.00587 15.8125 4.79169 16.0267 4.79169 16.2917C4.79169 16.5567 5.00587 16.7709 5.27087 16.7709H6.22919C6.49418 16.7709 6.70837 16.5567 6.70837 16.2917C6.70837 16.0267 6.49414 15.8125 6.22919 15.8125Z" fill="#0D76BA"/>
</svg>
